# xmcd
#
# Track frame offsets:
#	150
#	13568
#	32208
#	50214
#	63839
#	83399
#	102284
#	118326
#	134850
#	152537
#	168260
#	181773
#	198465
#	218302
#	234126
#	249140
#	267317
#	286673
#	303668
#	320563
#
# Disc length: 4540 seconds
#
# Revision: 1
# Processed by: cddbd v1.5.2PL0 Copyright (c) Steve Scherf et al.
# Submitted via: EasyCDDAExtractor 11.5.0.1
#
DISCID=0a11ba14
DTITLE=Various Artist - NCT 091
DYEAR=2006
DGENRE=Country
TTITLE0=George Strait - It Just Comes Natural
TTITLE1=Pat Green - Dixie Lullaby
TTITLE2=Gretchen Wilson ft. John Rich - Come To Bed
TTITLE3=Danielle Peck - Isn't That Everything
TTITLE4=Brooks and Dunn - Hillbilly Deluxe
TTITLE5=Little Big Town - Good As Gone
TTITLE6=Gary Allan - A Feelin' Like That
TTITLE7=Josh Gracin - I Keep Coming Back
TTITLE8=Rockie Lynne - More
TTITLE9=Steve Holy - Come On Rain
TTITLE10=Josh Turner ft. Dr. Ralph Stanley and Marty Roe, Dana Williams and Gene J
TTITLE10=ohnson of Diamond Rio - Me And God
TTITLE11=Blake Shelton - Don't Make Me
TTITLE12=Jason Michael Carroll - Alyssa Lies
TTITLE13=Mark Wills - Take It All Out Of Me
TTITLE14=Jimmy Wayne - That's All I'll Ever Need
TTITLE15=Rushlow Harris - Bagpipes Cryin'
TTITLE16=Darryl Worley - I Just Came Back (From A War)
TTITLE17=Blue County - I Get To
TTITLE18=No Justice - Bend But Don't Break
TTITLE19=Karen Taylor-Good - On Angel's Wings
EXTD=
EXTT0=
EXTT1=
EXTT2=
EXTT3=
EXTT4=
EXTT5=
EXTT6=
EXTT7=
EXTT8=
EXTT9=
EXTT10=
EXTT11=
EXTT12=
EXTT13=
EXTT14=
EXTT15=
EXTT16=
EXTT17=
EXTT18=
EXTT19=
PLAYORDER=
